<?xml version="1.0" standalone="no"?>
<!DOCTYPE svg PUBLIC "-//W3C//DTD SVG 20010904//EN"
 "http://www.w3.org/TR/2001/REC-SVG-20010904/DTD/svg10.dtd">
<svg version="1.0" xmlns="http://www.w3.org/2000/svg"
 width="330.000000pt" height="330.000000pt" viewBox="0 0 330.000000 330.000000"
 preserveAspectRatio="xMidYMid meet">
<metadata>
Created by potrace 1.11, written by Peter Selinger 2001-2013
</metadata>
<g transform="translate(0.000000,330.000000) scale(0.100000,-0.100000)"
fill="#000000" stroke="none">
<path d="M1010 3066 c-118 -25 -226 -113 -278 -224 l-27 -57 -7 -935 c-3 -514
-3 -1027 1 -1140 l7 -205 33 -62 c42 -79 113 -146 195 -184 l63 -30 659 3 659
3 63 34 c75 41 145 115 181 191 l26 55 0 1135 0 1135 -28 57 c-63 128 -176
211 -313 229 -108 13 -1168 10 -1234 -5z m570 -898 c0 -462 2 -513 17 -530 19
-22 52 -23 79 -4 18 14 19 33 22 530 2 399 5 516 15 516 6 0 29 -5 50 -11 l37
-10 0 -501 c0 -453 2 -503 17 -520 19 -22 52 -23 79 -4 18 14 19 34 24 488 l5
473 52 -53 c31 -31 67 -83 90 -129 l38 -77 3 -198 4 -198 89 0 89 0 0 -115 c0
-105 -2 -115 -19 -115 -16 0 -19 -11 -24 -83 -13 -161 -71 -290 -179 -398 -74
-75 -187 -138 -283 -160 l-55 -12 0 -152 0 -151 95 -12 c296 -37 164 -122
-189 -122 -120 0 -279 20 -317 41 -56 30 8 66 148 82 l93 11 0 153 c0 133 -2
153 -16 153 -38 0 -174 55 -235 96 -158 104 -251 266 -267 464 -6 78 -9 85
-29 88 -22 3 -23 7 -23 118 l0 114 90 0 90 0 0 153 c0 241 30 337 140 447 l55
55 5 -471 c4 -379 8 -474 19 -487 17 -22 59 -22 83 0 17 15 18 45 18 519 l0
503 33 10 c17 5 38 10 45 10 9 1 12 -108 12 -511z"/>
<path d="M1117 1703 c-12 -11 -7 -106 8 -172 22 -93 71 -177 145 -251 183
-183 454 -209 673 -63 80 53 137 120 183 216 34 71 58 180 52 238 -3 30 -6 34
-33 34 l-30 0 -5 -85 c-9 -145 -65 -253 -175 -343 -268 -217 -678 -69 -750
270 -8 38 -15 89 -15 116 0 43 -2 47 -23 47 -13 0 -27 -3 -30 -7z"/>
</g>
</svg>
